<svg width="316" height="93" viewBox="0 0 316 93" fill="none" xmlns="http://www.w3.org/2000/svg">
<path d="M53.5 46.6875C52.8438 52 51.4531 56.7344 49.3281 60.8906C47.2031 65.0156 44.5625 68.0938 41.4062 70.125C38.2812 72.125 34.7812 73.0781 30.9062 72.9844C26.4688 72.8594 22.875 71.1094 20.125 67.7344L15.5312 91.5H0.109375L12.2969 21.2812L26.5469 21.2344L25.75 26.0625C29.1562 22.125 33.1719 20.2188 37.7969 20.3438C42.7344 20.4062 46.5781 22.1719 49.3281 25.6406C52.1094 29.1094 53.5938 33.8438 53.7812 39.8438C53.8438 41.7812 53.75 44.0625 53.5 46.6875ZM38.5 40.4062C38.3438 35.25 36.5938 32.625 33.25 32.5312C30 32.3438 27.2969 33.6719 25.1406 36.5156L21.5312 56.625C22.5 59.3438 24.6562 60.7344 28 60.7969C33.4688 60.8906 36.8281 56.1875 38.0781 46.6875C38.3594 43.6875 38.5 41.5938 38.5 40.4062ZM78.5781 26.8125C82.3594 22.4062 86.7188 20.2344 91.6562 20.2969C96.75 20.4219 100.516 22.2812 102.953 25.875C105.422 29.4688 106.312 34.3438 105.625 40.5L100.375 72H84.9531L90.25 40.3125C90.375 39.25 90.4062 38.25 90.3438 37.3125C90.125 34.2188 88.4062 32.625 85.1875 32.5312C82.4062 32.4688 79.9375 33.4844 77.7812 35.5781L71.3125 72H55.8906L68.4062 0H83.8281L78.5781 26.8125ZM159.438 46.6875C158.781 52 157.391 56.7344 155.266 60.8906C153.141 65.0156 150.5 68.0938 147.344 70.125C144.219 72.125 140.719 73.0781 136.844 72.9844C132.406 72.8594 128.812 71.1094 126.062 67.7344L121.469 91.5H106.047L118.234 21.2812L132.484 21.2344L131.688 26.0625C135.094 22.125 139.109 20.2188 143.734 20.3438C148.672 20.4062 152.516 22.1719 155.266 25.6406C158.047 29.1094 159.531 33.8438 159.719 39.8438C159.781 41.7812 159.688 44.0625 159.438 46.6875ZM144.438 40.4062C144.281 35.25 142.531 32.625 139.188 32.5312C135.938 32.3438 133.234 33.6719 131.078 36.5156L127.469 56.625C128.438 59.3438 130.594 60.7344 133.938 60.7969C139.406 60.8906 142.766 56.1875 144.016 46.6875C144.297 43.6875 144.438 41.5938 144.438 40.4062ZM207.906 72H163.328L164.641 63.7031L193 36.4688C198.281 31.3125 201.188 26.6406 201.719 22.4531C202.125 19.4844 201.625 17.0156 200.219 15.0469C198.812 13.0469 196.703 11.9844 193.891 11.8594C190.422 11.7344 187.5 12.8281 185.125 15.1406C182.75 17.4219 181.312 20.5469 180.812 24.5156L169.75 24.5625C170.062 20.375 171.328 16.6094 173.547 13.2656C175.797 9.92188 178.766 7.32812 182.453 5.48438C186.172 3.60938 190.188 2.71875 194.5 2.8125C200.438 2.9375 205.125 4.65625 208.562 7.96875C212.031 11.2813 213.562 15.7188 213.156 21.2812C212.625 27.6562 208.797 34.3906 201.672 41.4844L198.766 44.3438L179.031 62.9062H209.359L207.906 72ZM221.312 46.125C222.188 41.0312 223.719 36.4688 225.906 32.4375C228.125 28.4062 230.797 25.3906 233.922 23.3906C237.047 21.3594 240.453 20.3438 244.141 20.3438C247.797 20.3438 250.922 21.2656 253.516 23.1094C256.141 24.9219 258.016 27.4062 259.141 30.5625L260.828 21.2812H263.359L254.969 70.2188C253.781 77.1875 251.172 82.625 247.141 86.5312C243.141 90.4688 238.328 92.4375 232.703 92.4375C226.297 92.4375 221.328 89.5625 217.797 83.8125L219.719 82.2188C222.938 87.375 227.219 89.9531 232.562 89.9531C237.438 89.9531 241.625 88.2969 245.125 84.9844C248.656 81.7031 251.016 77.0625 252.203 71.0625L253.609 63.9844C251.359 66.8281 248.672 69.0312 245.547 70.5938C242.453 72.1562 239.078 72.9375 235.422 72.9375C232.109 72.9375 229.328 72.125 227.078 70.5C224.828 68.8438 223.156 66.4375 222.062 63.2812C221 60.0938 220.531 56.5938 220.656 52.7812C220.719 51 220.938 48.7812 221.312 46.125ZM223.188 52.0781C222.781 57.7656 223.625 62.25 225.719 65.5312C227.844 68.7812 231.047 70.4062 235.328 70.4062C239.359 70.4062 243 69.4219 246.25 67.4531C249.5 65.4531 252.156 62.6562 254.219 59.0625L258.344 36.0469C257.719 31.7656 256.172 28.5 253.703 26.25C251.266 24 248.078 22.875 244.141 22.875C240.141 22.875 236.578 24.2188 233.453 26.9062C230.328 29.5938 227.906 33.2812 226.188 37.9688C224.469 42.6562 223.469 47.3594 223.188 52.0781ZM271.562 45.6562C272.344 40.9375 273.922 36.6406 276.297 32.7656C278.672 28.8906 281.641 25.8594 285.203 23.6719C288.766 21.4531 292.656 20.3438 296.875 20.3438C300.312 20.3438 303.359 21.1094 306.016 22.6406C308.672 24.1719 310.781 26.4531 312.344 29.4844C313.906 32.4844 314.797 35.8125 315.016 39.4688C315.109 41.5938 314.922 44.3125 314.453 47.625C313.672 52.3438 312.078 56.6562 309.672 60.5625C307.297 64.4688 304.328 67.5156 300.766 69.7031C297.234 71.8594 293.375 72.9375 289.188 72.9375C285.719 72.9375 282.656 72.1719 280 70.6406C277.375 69.0781 275.266 66.8125 273.672 63.8438C272.109 60.8438 271.234 57.4844 271.047 53.7656C270.922 51.6719 271.094 48.9688 271.562 45.6562ZM273.766 55.6875C274.391 60.2188 276.062 63.8125 278.781 66.4688C281.5 69.0938 284.953 70.4062 289.141 70.4062C294.047 70.4062 298.469 68.6875 302.406 65.25C306.375 61.8125 309.234 57.1719 310.984 51.3281C312.422 46.4844 312.844 41.9062 312.25 37.5938C311.562 33.0625 309.859 29.4844 307.141 26.8594C304.453 24.2031 301.047 22.875 296.922 22.875C292.016 22.875 287.578 24.625 283.609 28.125C279.641 31.5938 276.781 36.2031 275.031 41.9531C273.594 46.7344 273.172 51.3125 273.766 55.6875Z" fill="black"/>
</svg>
